<?xml version="1.0" encoding="UTF-8"?><svg id="Layer_1" xmlns="http://www.w3.org/2000/svg" xmlns:xlink="http://www.w3.org/1999/xlink" viewBox="0 0 724.89 481.45"><defs><style>.cls-1{fill:url(#linear-gradient-2);}.cls-2{fill:#fff;}.cls-3{fill:url(#linear-gradient-3);}.cls-4{fill:url(#linear-gradient);}</style><linearGradient id="linear-gradient" x1="682.65" y1="424.63" x2="0" y2="424.63" gradientUnits="userSpaceOnUse"><stop offset="0" stop-color="#b4cfd6"/><stop offset="1" stop-color="aqua"/></linearGradient><linearGradient id="linear-gradient-2" x1="724.89" y1="239.63" x2="582.56" y2="239.63" gradientUnits="userSpaceOnUse"><stop offset=".35" stop-color="#bdccd4"/><stop offset=".99" stop-color="aqua"/></linearGradient><linearGradient id="linear-gradient-3" x1="654.6" y1="189.34" x2="483.11" y2="189.34" xlink:href="#linear-gradient"/></defs><path class="cls-4" d="M577.22,481.45c-10.13,0-21.6-.2-34.08-.6-12.29-.4-25.55-1-39.43-1.79-14.78-1.2-29.39-2.39-43.91-3.58-14.41-1.18-27.87-2.39-40-3.58-11.33-1.11-22.08-2.22-31.93-3.28-9.17-1-16.05-1.91-20.47-2.71-3.03-.51-5.59-2.04-7.59-4.55-2.08-2.61-2.87-5.53-2.34-8.69,.5-3.05,2.03-5.62,4.56-7.63,2.06-1.65,4.36-2.5,6.83-2.5,.61,0,1.24,.05,1.86,.16,4.32,.78,10.98,1.68,19.83,2.66,9.45,1.04,20.07,2.15,31.57,3.28,12.08,1.19,25.41,2.39,39.62,3.58,14.31,1.19,28.82,2.38,43.53,3.58,10.63,.78,23.23,1.38,37.43,1.78,9.55,.26,19.11,.39,28.42,.39,4.61,0,9.26-.03,13.82-.1,13.8-.2,26.78-.8,38.58-1.78,11.53-.96,20.45-2.79,26.52-5.42,1.65-.81,3.35-1.23,5.04-1.23,1.44,0,2.88,.3,4.29,.89,3.01,1.25,5.1,3.22,6.19,5.85,1.5,3.07,1.62,6.2,.33,9.3-1.28,3.06-3.28,5.16-5.96,6.24-12.31,5.33-33.89,8.52-65.92,9.74h-.05s-16.75,0-16.75,0Zm-455.07-22.07c-24.33,0-46.6-2.23-66.2-6.63-26.9-6.11-44.35-15.99-51.86-29.34-5.67-9.6-5.46-19.38,.67-29.02,7.99-11.79,23.45-19.6,45.98-23.28,11.57-2.19,24.68-3.31,38.9-3.31s29.84,1.11,46.57,3.3c5.08,.79,10.33,1.57,16.13,2.39,5.37,.77,11.02,1.55,17.27,2.38,22.16,2.88,46.55,6.09,72.47,9.54,26.83,3.58,55.2,6.99,84.33,10.13,29.08,3.15,59.65,5.96,90.87,8.34,31.08,2.38,61.84,3.98,91.42,4.76,11.82,.32,23.64,.48,35.11,.48,17.18,0,34.2-.36,50.59-1.07,27.14-1.18,52.03-3.96,73.99-8.27,1.08-.34,2.15-.51,3.2-.51,1.98,0,3.86,.61,5.58,1.81,2.47,1.74,4.21,4.1,5.19,7.02l.08,.25,.03,.26c.98,7.36-2.31,12.24-9.27,13.73-18.74,3.59-39.11,6.21-60.6,7.81-21.53,1.59-44.47,2.39-68.19,2.39-32.11,0-65.89-1.21-100.38-3.59-34.29-2.37-68.53-5.28-101.78-8.65-33-3.35-65.03-7.07-95.21-11.04-30.16-3.96-57.26-7.57-80.53-10.74-6.02-.8-11.81-1.5-17.22-2.08-5.7-.61-11.16-1.32-16.23-2.1-16.08-2.06-31.17-3.1-44.78-3.1-12.21,0-23.54,.84-33.7,2.5-11.39,2.28-19.26,4.93-23.3,7.87-5.73,4.17-6.88,5.55-7.09,5.87l-.07,.1-.07,.09c-.4,.5-1.24,1.56,.23,4.13l.08,.14c.21,.43,1.44,2.24,8.17,7.41,4.85,3.73,14.35,7.38,28.24,10.85,17.45,4.16,37.85,6.28,60.6,6.28,11.37,0,23.56-.53,36.23-1.57,.58-.09,1.16-.14,1.73-.14,2.48,0,4.72,.87,6.66,2.59,2.25,1.99,3.64,4.53,4.15,7.53,.49,3.7-.15,6.68-1.89,8.93-1.83,2.37-4.78,3.83-8.79,4.33l-.17,.02c-6.35,.39-12.7,.69-18.86,.9-6.26,.2-12.41,.3-18.28,.3Z"/><path class="cls-2" d="M588.16,316.44c-17.93-1.21-35.86-2.35-53.81-3.09-4.77-.2-6.79-1.87-8.32-6.32-12.19-35.5-23.65-71.23-34.93-107.03-1.94-6.16-4.35-12.1-8.99-16.78-4.57-4.61-12.31-6.26-16.41-3.31-5.52,3.96-3.04,9.1-1.38,13.82,5.64,16.06,13.65,31.14,19.92,46.94,9.27,23.33,18.05,46.85,27.46,71.42-18.81-1.92-36.42-1.13-53.73-4.26-10.86-1.96-14.08-5.69-15.07-16.85-2.78-31.28-5.82-62.53-10.47-93.6-.98-6.58-2.74-12.97-7.26-18.22-2.82-3.27-6.5-3.91-10.28-2.84-3.48,.99-5.17,3.95-5.65,7.49-.6,4.41-.63,8.81-.14,13.25,1.49,13.44,4.83,26.48,8.45,39.47,4.92,17.64,10.97,35.04,12.33,53.47,.82,11.15-2.79,15.29-14.21,15.88-6.39,.33-12.85-.26-19.26-.74-22.27-1.65-21.9-4.68-22.25-22.04-.17-8.59-4.02-15.32-10.91-20.24-5.04-3.6-10.83-5-15.98-.96-4.9,3.84-5.24,9.58-2.86,15.13,2.25,5.27,5.03,10.32,7.44,15.53,2.66,5.77,.94,8.65-5.44,9.44-8.91,1.1-18.03-4.53-22.08-13.85-2.29-5.26-4.25-10.67-6.4-15.99-1.75-4.32-3.66-8.55-7.25-11.74-5.46-4.85-14.13-5.94-19.04-2.38-4.96,3.6-5.7,9.4-1.39,17.28,3.7,6.78,8.17,13.14,12.13,19.79,2.99,5.02,.78,8.67-5.1,8.54-1.74-.04-3.63-.24-5.19-.95-9.3-4.26-19.18-5.2-29.2-5.3-12.76-.13-25.07-1.71-36.38-8.42-5.26-3.12-11.38-3.43-16.17,.93-4.66,4.24-4.88,10.19-3.48,16.07,1.51,6.35,4.84,11.85,8.56,17.11,14.98,21.17,33.8,38.6,53.82,54.85,2.27,1.84,5.25,5.57,7.84,2.68,2.56-2.85-1.66-5.38-3.51-7.53-11.87-13.76-24.08-27.25-33.91-42.61-3.57-5.57-7.09-11.24-7.82-18.07-.43-4.03,1.41-5.73,5.01-3.84,5.15,2.7,10.63,2.86,16.15,3.09,13.97,.58,27.79,1.38,41.02,6.95,7.14,3,14.16,.2,18.51-6.38,2.56-3.88,4.1-4.83,8.86-2.13,13.92,7.92,28.61,10.74,43.37,1.71,2.43-1.49,3.82-.95,5.72,.62,4.88,4.03,10.49,6.63,16.86,7.05,10.61,.7,21.28,2.15,31.86,.38,10.04-1.68,19.74-1.16,29.4,1.95,5.31,1.71,10.88,1.96,16.43,2.26,15.5,.85,31,2.03,46.51,2.56,4.7,.16,6.5,1.88,7.6,6.14,1.99,7.69,4.41,15.27,6.85,22.83,2.71,8.41,5.63,16.76,10.5,24.26,7.81,12.03,19.85,14.43,31.27,6.03,2.66-1.95,5.25-4.18,7.29-6.74,12.22-15.37,20.39-32.52,22.09-52.32,.7-8.13-.62-9.8-8.94-10.36Zm-7.78,17.97c-3.33,13.62-8.33,26.53-17.92,37.05-6.28,6.88-11.52,5.84-15.89-2.6-1.31-2.53-2.47-5.18-3.28-7.9-3.22-10.69-6.28-21.43-9.61-32.9,15.22,.89,29.7,1.81,44.18,2.52,3.08,.15,3.05,1.7,2.53,3.83Z"/><path class="cls-1" d="M717.41,396.19c-1.53,0-2.96-.44-4.26-1.3-1.71-1.14-2.79-2.81-3.15-4.84-2.99-14.2-7.28-28.4-12.75-42.19-5.48-13.81-11.8-27.56-18.79-40.88-7-13.32-14.54-26.4-22.4-38.89-7.59-12.07-15.28-24.13-23.51-36.9-6.64-10.34-12.95-20.28-18.77-29.56-5.96-9.52-11.28-18.72-15.81-27.36-8.91-16.96-14.03-32.83-15.19-47.17-.96-13.78,1.43-24.86,7.12-32.95,3.06-4.26,6.81-7.37,11.16-9.25,2.82-1.22,5.84-1.84,8.98-1.84,1.71,0,3.49,.19,5.28,.55,9.98,1.45,19.62,8.02,28.67,19.53l.07,.09c1.81,2.51,3.61,5.12,5.35,7.75,1.81,2.74,3.59,5.78,5.3,9.03,2.43,4.62,4.68,9.61,6.69,14.82,2,5.17,3.99,10.83,5.94,16.83,.62,1.9,.47,3.84-.45,5.63-.94,1.79-2.42,3.05-4.31,3.67l-.14,.04-.14,.03c-.71,.15-1.41,.23-2.07,.23-1.33,0-2.58-.29-3.71-.88-1.87-.97-3.06-2.57-3.45-4.65-5.75-18.48-12.83-33.08-21.03-43.4-6.47-8.48-12.87-13.16-19.04-13.96l-.1-.02c-.77-.13-1.53-.2-2.24-.2-3.4,0-6.15,1.52-8.39,4.65-1.66,2.15-2.91,5.09-3.79,8.81-.9,3.82-1.11,8.5-.64,13.9,.47,5.54,1.74,11.88,3.77,18.85,2.05,7.01,5.28,14.72,9.6,22.94,4.37,8.3,9.52,17.19,15.32,26.43,6.24,9.91,12.5,19.75,18.59,29.22,7.62,11.75,15.55,24.18,23.55,36.95,8.15,13.01,15.88,26.45,22.97,39.96l.29,.54c8.33,15.87,15.27,31.05,20.62,45.12,5.38,14.14,9.51,28.17,12.27,41.69l.03,.13v.13c.19,1.68-.21,3.4-1.17,5.11-1.11,1.93-2.81,3.12-4.94,3.47-.45,.07-.88,.11-1.31,.11Z"/><path class="cls-3" d="M646.1,378.68c-1.74,0-3.37-.5-4.85-1.49-1.94-1.29-3.17-3.19-3.57-5.5-3.64-17.29-8.85-34.54-15.49-51.28-6.67-16.8-14.35-33.51-22.82-49.64-8.51-16.19-17.65-32.08-27.19-47.21-9.39-14.92-18.99-29.98-28.53-44.75-7.93-12.34-15.59-24.41-22.77-35.85-7.22-11.54-13.67-22.69-19.16-33.14-10.78-20.52-16.95-39.69-18.36-57-1.17-16.58,1.71-29.9,8.54-39.6,3.64-5.07,8.11-8.77,13.28-11.02,3.36-1.46,6.95-2.19,10.67-2.19,2.04,0,4.16,.22,6.31,.66,11.95,1.73,23.53,9.64,34.42,23.49l.07,.09c2.16,2.99,4.34,6.15,6.47,9.38,2.17,3.29,4.33,6.96,6.4,10.9,2.91,5.53,5.63,11.56,8.08,17.92,2.42,6.26,4.84,13.12,7.19,20.38,.71,2.15,.53,4.36-.51,6.39-1.06,2.04-2.69,3.44-4.86,4.16l-.15,.05-.16,.03c-.81,.17-1.61,.25-2.37,.25-1.53,0-2.97-.34-4.26-1.01-2.1-1.09-3.44-2.9-3.88-5.25-7.01-22.51-15.62-40.29-25.62-52.85-7.94-10.4-15.83-16.16-23.48-17.16l-.1-.02c-.97-.16-1.92-.25-2.82-.25-4.32,0-7.8,1.92-10.65,5.88-2.05,2.68-3.61,6.32-4.68,10.89-1.1,4.69-1.36,10.42-.79,17.05,.58,6.73,2.13,14.45,4.61,22.97,2.48,8.5,6.41,17.91,11.68,27.94,5.3,10.1,11.56,20.9,18.6,32.1,7.02,11.15,14.6,23.09,22.55,35.46,9.23,14.22,18.84,29.3,28.56,44.81,9.86,15.73,19.23,32.02,27.85,48.43l.36,.69c10.07,19.17,18.47,37.56,24.98,54.65,6.52,17.11,11.52,34.1,14.86,50.49l.03,.13v.13c.22,1.94-.25,3.92-1.37,5.87-1.24,2.16-3.16,3.51-5.57,3.9-.51,.08-1.01,.12-1.5,.12Z"/></svg>